{
	"asset":{
		"generator":"Khronos glTF Blender I/O v4.1.63",
		"version":"2.0"
	},
	"scene":0,
	"scenes":[
		{
			"name":"Scene",
			"nodes":[
				13
			]
		}
	],
	"nodes":[
		{
			"name":"Bone.001",
			"rotation":[
				0.5821079015731812,
				0.010279505513608456,
				0.16211579740047455,
				0.7967202663421631
			],
			"scale":[
				0.9999999403953552,
				1,
				0.9999999403953552
			],
			"translation":[
				3.841705620288849e-09,
				0.03106585331261158,
				1.3093813322484493e-07
			]
		},
		{
			"name":"Bone.002",
			"rotation":[
				0.5825341939926147,
				0.04838402941823006,
				-0.1659504473209381,
				0.7942124009132385
			],
			"scale":[
				1,
				0.9999998807907104,
				0.9999998807907104
			],
			"translation":[
				3.841705620288849e-09,
				0.03106585331261158,
				1.3093813322484493e-07
			]
		},
		{
			"children":[
				0,
				1
			],
			"name":"Bone",
			"rotation":[
				0.6576507687568665,
				-0.03651363402605057,
				0.018452104181051254,
				0.7522112131118774
			],
			"scale":[
				0.9999986886978149,
				0.9999998807907104,
				0.9999958276748657
			],
			"translation":[
				0.009339507669210434,
				1.6670664548873901,
				-0.0259232297539711
			]
		},
		{
			"name":"Bone.006",
			"rotation":[
				-0.05430673062801361,
				-2.2415298062128386e-08,
				-0.011069193482398987,
				0.998462975025177
			],
			"scale":[
				1,
				1,
				1.0000001192092896
			],
			"translation":[
				-1.6763806343078613e-08,
				0.025239992886781693,
				4.190951585769653e-08
			]
		},
		{
			"children":[
				3
			],
			"name":"Bone.005",
			"rotation":[
				-0.21716269850730896,
				2.5309461193501193e-08,
				-0.04426369443535805,
				0.9751313328742981
			],
			"scale":[
				1.0000001192092896,
				0.9999999403953552,
				0.9999999403953552
			],
			"translation":[
				3.259629011154175e-09,
				0.026829002425074577,
				-1.8044374883174896e-08
			]
		},
		{
			"children":[
				4
			],
			"name":"Bone.004",
			"rotation":[
				-0.3850306570529938,
				4.2677154254988636e-08,
				-0.10814807564020157,
				0.9165453910827637
			],
			"scale":[
				1,
				1.0000001192092896,
				1
			],
			"translation":[
				1.210719347000122e-08,
				0.01704900711774826,
				-1.5366822481155396e-08
			]
		},
		{
			"children":[
				5
			],
			"name":"Bone.007",
			"rotation":[
				2.0400620996952057e-06,
				-2.0489096641540527e-08,
				6.370246410369873e-07,
				1
			],
			"scale":[
				1,
				1,
				0.9999998807907104
			],
			"translation":[
				-3.306195139884949e-08,
				0.01704905554652214,
				1.862645149230957e-08
			]
		},
		{
			"name":"Bone.009",
			"rotation":[
				0.1807647943496704,
				-0.0064721242524683475,
				0.07729069888591766,
				0.9804633259773254
			],
			"scale":[
				1.0000001192092896,
				1,
				1.0000001192092896
			],
			"translation":[
				-1.0640360414981842e-07,
				0.022470366209745407,
				-1.4435499906539917e-08
			]
		},
		{
			"children":[
				7
			],
			"name":"Bone.008",
			"rotation":[
				-0.0833694264292717,
				-7.33240455019768e-08,
				0.7112818956375122,
				0.6979452967643738
			],
			"scale":[
				1,
				0.9999999403953552,
				0.9999998807907104
			],
			"translation":[
				-3.306195139884949e-08,
				0.01704905554652214,
				1.862645149230957e-08
			]
		},
		{
			"name":"Bone.011",
			"rotation":[
				0.2830965518951416,
				-0.009901394136250019,
				-0.06452228873968124,
				0.9568673968315125
			],
			"scale":[
				1,
				1.0000001192092896,
				1.0000001192092896
			],
			"translation":[
				1.3224780559539795e-07,
				0.016360361129045486,
				1.280568540096283e-08
			]
		},
		{
			"children":[
				9
			],
			"name":"Bone.010",
			"rotation":[
				0.10037997364997864,
				-2.129037426357172e-07,
				-0.7348964214324951,
				0.670709490776062
			],
			"scale":[
				0.9999999403953552,
				0.9999999403953552,
				0.9999999403953552
			],
			"translation":[
				-3.306195139884949e-08,
				0.01704905554652214,
				1.862645149230957e-08
			]
		},
		{
			"children":[
				6,
				8,
				10
			],
			"name":"Bone.003",
			"rotation":[
				-0.9408340454101562,
				0.061278246343135834,
				-0.09727505594491959,
				0.31876933574676514
			],
			"scale":[
				0.9999999403953552,
				1,
				1
			],
			"translation":[
				0.009417013265192509,
				1.6670664548873901,
				-0.02654162049293518
			]
		},
		{
			"mesh":0,
			"name":"Plane",
			"skin":0
		},
		{
			"children":[
				12,
				2,
				11
			],
			"name":"Armature"
		}
	],
	"animations":[
		{
			"channels":[
				{
					"sampler":0,
					"target":{
						"node":2,
						"path":"translation"
					}
				},
				{
					"sampler":1,
					"target":{
						"node":2,
						"path":"rotation"
					}
				},
				{
					"sampler":2,
					"target":{
						"node":11,
						"path":"translation"
					}
				},
				{
					"sampler":3,
					"target":{
						"node":4,
						"path":"rotation"
					}
				},
				{
					"sampler":4,
					"target":{
						"node":3,
						"path":"rotation"
					}
				},
				{
					"sampler":5,
					"target":{
						"node":8,
						"path":"rotation"
					}
				},
				{
					"sampler":6,
					"target":{
						"node":7,
						"path":"rotation"
					}
				},
				{
					"sampler":7,
					"target":{
						"node":10,
						"path":"rotation"
					}
				},
				{
					"sampler":8,
					"target":{
						"node":9,
						"path":"rotation"
					}
				}
			],
			"name":"Armature",
			"samplers":[
				{
					"input":7,
					"interpolation":"LINEAR",
					"output":8
				},
				{
					"input":7,
					"interpolation":"LINEAR",
					"output":9
				},
				{
					"input":7,
					"interpolation":"LINEAR",
					"output":10
				},
				{
					"input":7,
					"interpolation":"LINEAR",
					"output":11
				},
				{
					"input":7,
					"interpolation":"LINEAR",
					"output":12
				},
				{
					"input":7,
					"interpolation":"LINEAR",
					"output":13
				},
				{
					"input":7,
					"interpolation":"LINEAR",
					"output":14
				},
				{
					"input":7,
					"interpolation":"LINEAR",
					"output":15
				},
				{
					"input":7,
					"interpolation":"LINEAR",
					"output":16
				}
			]
		}
	],
	"meshes":[
		{
			"name":"Plane",
			"primitives":[
				{
					"attributes":{
						"POSITION":0,
						"NORMAL":1,
						"TEXCOORD_0":2,
						"JOINTS_0":3,
						"WEIGHTS_0":4
					},
					"indices":5
				}
			]
		}
	],
	"skins":[
		{
			"inverseBindMatrices":6,
			"joints":[
				2,
				0,
				1,
				11,
				6,
				5,
				4,
				3,
				8,
				7,
				10,
				9
			],
			"name":"Armature"
		}
	],
	"accessors":[
		{
			"bufferView":0,
			"componentType":5126,
			"count":728,
			"max":[
				0.106527179479599,
				1.6984272003173828,
				0.03422112017869949
			],
			"min":[
				-0.09377861022949219,
				1.555800437927246,
				-0.06229119747877121
			],
			"type":"VEC3"
		},
		{
			"bufferView":1,
			"componentType":5126,
			"count":728,
			"type":"VEC3"
		},
		{
			"bufferView":2,
			"componentType":5126,
			"count":728,
			"type":"VEC2"
		},
		{
			"bufferView":3,
			"componentType":5121,
			"count":728,
			"type":"VEC4"
		},
		{
			"bufferView":4,
			"componentType":5126,
			"count":728,
			"type":"VEC4"
		},
		{
			"bufferView":5,
			"componentType":5123,
			"count":972,
			"type":"SCALAR"
		},
		{
			"bufferView":6,
			"componentType":5126,
			"count":12,
			"type":"MAT4"
		},
		{
			"bufferView":7,
			"componentType":5126,
			"count":85,
			"max":[
				3.5416666666666665
			],
			"min":[
				0.041666666666666664
			],
			"type":"SCALAR"
		},
		{
			"bufferView":8,
			"componentType":5126,
			"count":85,
			"type":"VEC3"
		},
		{
			"bufferView":9,
			"componentType":5126,
			"count":85,
			"type":"VEC4"
		},
		{
			"bufferView":10,
			"componentType":5126,
			"count":85,
			"type":"VEC3"
		},
		{
			"bufferView":11,
			"componentType":5126,
			"count":85,
			"type":"VEC4"
		},
		{
			"bufferView":12,
			"componentType":5126,
			"count":85,
			"type":"VEC4"
		},
		{
			"bufferView":13,
			"componentType":5126,
			"count":85,
			"type":"VEC4"
		},
		{
			"bufferView":14,
			"componentType":5126,
			"count":85,
			"type":"VEC4"
		},
		{
			"bufferView":15,
			"componentType":5126,
			"count":85,
			"type":"VEC4"
		},
		{
			"bufferView":16,
			"componentType":5126,
			"count":85,
			"type":"VEC4"
		}
	],
	"bufferViews":[
		{
			"buffer":0,
			"byteLength":8736,
			"byteOffset":0,
			"target":34962
		},
		{
			"buffer":0,
			"byteLength":8736,
			"byteOffset":8736,
			"target":34962
		},
		{
			"buffer":0,
			"byteLength":5824,
			"byteOffset":17472,
			"target":34962
		},
		{
			"buffer":0,
			"byteLength":2912,
			"byteOffset":23296,
			"target":34962
		},
		{
			"buffer":0,
			"byteLength":11648,
			"byteOffset":26208,
			"target":34962
		},
		{
			"buffer":0,
			"byteLength":1944,
			"byteOffset":37856,
			"target":34963
		},
		{
			"buffer":0,
			"byteLength":768,
			"byteOffset":39800
		},
		{
			"buffer":0,
			"byteLength":340,
			"byteOffset":40568
		},
		{
			"buffer":0,
			"byteLength":1020,
			"byteOffset":40908
		},
		{
			"buffer":0,
			"byteLength":1360,
			"byteOffset":41928
		},
		{
			"buffer":0,
			"byteLength":1020,
			"byteOffset":43288
		},
		{
			"buffer":0,
			"byteLength":1360,
			"byteOffset":44308
		},
		{
			"buffer":0,
			"byteLength":1360,
			"byteOffset":45668
		},
		{
			"buffer":0,
			"byteLength":1360,
			"byteOffset":47028
		},
		{
			"buffer":0,
			"byteLength":1360,
			"byteOffset":48388
		},
		{
			"buffer":0,
			"byteLength":1360,
			"byteOffset":49748
		},
		{
			"buffer":0,
			"byteLength":1360,
			"byteOffset":51108
		}
	],
	"buffers":[
		{
			"byteLength":52468,
			"uri":"birdOfPrey.bin"
		}
	]
}
