{
	"asset":{
		"generator":"Khronos glTF Blender I/O v4.1.63",
		"version":"2.0"
	},
	"scene":0,
	"scenes":[
		{
			"name":"Scene",
			"nodes":[
				3
			]
		}
	],
	"nodes":[
		{
			"name":"Bone",
			"translation":[
				0,
				1.5175426006317139,
				0
			]
		},
		{
			"name":"neutral_bone",
			"rotation":[
				-0.7071067690849304,
				0,
				0,
				0.7071067690849304
			]
		},
		{
			"mesh":0,
			"name":"Icosphere",
			"skin":0
		},
		{
			"children":[
				2,
				0,
				1
			],
			"name":"Armature"
		}
	],
	"animations":[
		{
			"channels":[
				{
					"sampler":0,
					"target":{
						"node":0,
						"path":"translation"
					}
				},
				{
					"sampler":1,
					"target":{
						"node":0,
						"path":"rotation"
					}
				},
				{
					"sampler":2,
					"target":{
						"node":0,
						"path":"scale"
					}
				}
			],
			"name":"ArmatureAction",
			"samplers":[
				{
					"input":7,
					"interpolation":"LINEAR",
					"output":8
				},
				{
					"input":7,
					"interpolation":"LINEAR",
					"output":9
				},
				{
					"input":7,
					"interpolation":"LINEAR",
					"output":10
				}
			]
		}
	],
	"meshes":[
		{
			"name":"Icosphere",
			"primitives":[
				{
					"attributes":{
						"POSITION":0,
						"NORMAL":1,
						"TEXCOORD_0":2,
						"JOINTS_0":3,
						"WEIGHTS_0":4
					},
					"indices":5
				}
			]
		}
	],
	"skins":[
		{
			"inverseBindMatrices":6,
			"joints":[
				0,
				1
			],
			"name":"Armature"
		}
	],
	"accessors":[
		{
			"bufferView":0,
			"componentType":5126,
			"count":2544,
			"max":[
				0.12143313139677048,
				1.568129539489746,
				0.12143313139677048
			],
			"min":[
				-0.12143313139677048,
				1.497520923614502,
				-0.12143313139677048
			],
			"type":"VEC3"
		},
		{
			"bufferView":1,
			"componentType":5126,
			"count":2544,
			"type":"VEC3"
		},
		{
			"bufferView":2,
			"componentType":5126,
			"count":2544,
			"type":"VEC2"
		},
		{
			"bufferView":3,
			"componentType":5121,
			"count":2544,
			"type":"VEC4"
		},
		{
			"bufferView":4,
			"componentType":5126,
			"count":2544,
			"type":"VEC4"
		},
		{
			"bufferView":5,
			"componentType":5123,
			"count":3696,
			"type":"SCALAR"
		},
		{
			"bufferView":6,
			"componentType":5126,
			"count":2,
			"type":"MAT4"
		},
		{
			"bufferView":7,
			"componentType":5126,
			"count":160,
			"max":[
				6.666666666666667
			],
			"min":[
				0.041666666666666664
			],
			"type":"SCALAR"
		},
		{
			"bufferView":8,
			"componentType":5126,
			"count":160,
			"type":"VEC3"
		},
		{
			"bufferView":9,
			"componentType":5126,
			"count":160,
			"type":"VEC4"
		},
		{
			"bufferView":10,
			"componentType":5126,
			"count":160,
			"type":"VEC3"
		}
	],
	"bufferViews":[
		{
			"buffer":0,
			"byteLength":30528,
			"byteOffset":0,
			"target":34962
		},
		{
			"buffer":0,
			"byteLength":30528,
			"byteOffset":30528,
			"target":34962
		},
		{
			"buffer":0,
			"byteLength":20352,
			"byteOffset":61056,
			"target":34962
		},
		{
			"buffer":0,
			"byteLength":10176,
			"byteOffset":81408,
			"target":34962
		},
		{
			"buffer":0,
			"byteLength":40704,
			"byteOffset":91584,
			"target":34962
		},
		{
			"buffer":0,
			"byteLength":7392,
			"byteOffset":132288,
			"target":34963
		},
		{
			"buffer":0,
			"byteLength":128,
			"byteOffset":139680
		},
		{
			"buffer":0,
			"byteLength":640,
			"byteOffset":139808
		},
		{
			"buffer":0,
			"byteLength":1920,
			"byteOffset":140448
		},
		{
			"buffer":0,
			"byteLength":2560,
			"byteOffset":142368
		},
		{
			"buffer":0,
			"byteLength":1920,
			"byteOffset":144928
		}
	],
	"buffers":[
		{
			"byteLength":146848,
			"uri":"commanderLazy.bin"
		}
	]
}
