{
	"asset":{
		"generator":"Khronos glTF Blender I/O v4.1.63",
		"version":"2.0"
	},
	"scene":0,
	"scenes":[
		{
			"name":"Scene",
			"nodes":[
				7
			]
		}
	],
	"nodes":[
		{
			"name":"Bone.002",
			"rotation":[
				0.10123668611049652,
				-1.5770526715641608e-06,
				-0.7157420516014099,
				0.6909880042076111
			],
			"scale":[
				0.9999998807907104,
				0.9999998807907104,
				1
			],
			"translation":[
				0,
				0.06835401058197021,
				0
			]
		},
		{
			"name":"Bone.003",
			"rotation":[
				0.6517298817634583,
				-1.4209286746336147e-05,
				-0.08196410536766052,
				0.7540093660354614
			],
			"scale":[
				0.9999999403953552,
				0.9999999403953552,
				0.9999999403953552
			],
			"translation":[
				0,
				0.06835401058197021,
				0
			]
		},
		{
			"name":"Bone.004",
			"rotation":[
				0.01234552450478077,
				1.791074026868955e-07,
				0.6909762620925903,
				0.7227721214294434
			],
			"scale":[
				0.9999999403953552,
				0.9999999403953552,
				1
			],
			"translation":[
				0,
				0.06835401058197021,
				0
			]
		},
		{
			"name":"Bone.005",
			"rotation":[
				-0.69935142993927,
				4.433183420360365e-08,
				-0.02690219320356846,
				0.7142715454101562
			],
			"translation":[
				0,
				0.06835401058197021,
				0
			]
		},
		{
			"children":[
				0,
				1,
				2,
				3
			],
			"name":"Bone",
			"rotation":[
				1,
				0,
				0,
				0
			],
			"translation":[
				0,
				1.5710240602493286,
				0
			]
		},
		{
			"name":"Bone.001",
			"translation":[
				0,
				1.5710240602493286,
				0
			]
		},
		{
			"mesh":0,
			"name":"Sphere",
			"skin":0
		},
		{
			"children":[
				6,
				4,
				5
			],
			"name":"Armature"
		}
	],
	"animations":[
		{
			"channels":[
				{
					"sampler":0,
					"target":{
						"node":4,
						"path":"translation"
					}
				},
				{
					"sampler":1,
					"target":{
						"node":4,
						"path":"rotation"
					}
				},
				{
					"sampler":2,
					"target":{
						"node":4,
						"path":"scale"
					}
				},
				{
					"sampler":3,
					"target":{
						"node":0,
						"path":"translation"
					}
				},
				{
					"sampler":4,
					"target":{
						"node":0,
						"path":"rotation"
					}
				},
				{
					"sampler":5,
					"target":{
						"node":0,
						"path":"scale"
					}
				},
				{
					"sampler":6,
					"target":{
						"node":1,
						"path":"translation"
					}
				},
				{
					"sampler":7,
					"target":{
						"node":1,
						"path":"rotation"
					}
				},
				{
					"sampler":8,
					"target":{
						"node":1,
						"path":"scale"
					}
				},
				{
					"sampler":9,
					"target":{
						"node":2,
						"path":"translation"
					}
				},
				{
					"sampler":10,
					"target":{
						"node":2,
						"path":"rotation"
					}
				},
				{
					"sampler":11,
					"target":{
						"node":2,
						"path":"scale"
					}
				},
				{
					"sampler":12,
					"target":{
						"node":3,
						"path":"translation"
					}
				},
				{
					"sampler":13,
					"target":{
						"node":3,
						"path":"rotation"
					}
				},
				{
					"sampler":14,
					"target":{
						"node":3,
						"path":"scale"
					}
				},
				{
					"sampler":15,
					"target":{
						"node":5,
						"path":"translation"
					}
				},
				{
					"sampler":16,
					"target":{
						"node":5,
						"path":"rotation"
					}
				},
				{
					"sampler":17,
					"target":{
						"node":5,
						"path":"scale"
					}
				}
			],
			"name":"ArmatureAction",
			"samplers":[
				{
					"input":7,
					"interpolation":"STEP",
					"output":8
				},
				{
					"input":9,
					"interpolation":"LINEAR",
					"output":10
				},
				{
					"input":7,
					"interpolation":"STEP",
					"output":11
				},
				{
					"input":7,
					"interpolation":"STEP",
					"output":12
				},
				{
					"input":9,
					"interpolation":"LINEAR",
					"output":13
				},
				{
					"input":7,
					"interpolation":"STEP",
					"output":14
				},
				{
					"input":7,
					"interpolation":"STEP",
					"output":15
				},
				{
					"input":9,
					"interpolation":"LINEAR",
					"output":16
				},
				{
					"input":7,
					"interpolation":"STEP",
					"output":17
				},
				{
					"input":7,
					"interpolation":"STEP",
					"output":18
				},
				{
					"input":9,
					"interpolation":"LINEAR",
					"output":19
				},
				{
					"input":7,
					"interpolation":"STEP",
					"output":20
				},
				{
					"input":7,
					"interpolation":"STEP",
					"output":21
				},
				{
					"input":9,
					"interpolation":"LINEAR",
					"output":22
				},
				{
					"input":9,
					"interpolation":"LINEAR",
					"output":23
				},
				{
					"input":7,
					"interpolation":"STEP",
					"output":24
				},
				{
					"input":9,
					"interpolation":"LINEAR",
					"output":25
				},
				{
					"input":7,
					"interpolation":"STEP",
					"output":26
				}
			]
		}
	],
	"materials":[
		{
			"doubleSided":true,
			"name":"EggMat",
			"pbrMetallicRoughness":{
				"baseColorFactor":[
					0,
					0.3887803852558136,
					0.10922899097204208,
					1
				],
				"metallicFactor":1,
				"roughnessFactor":0.4000000059604645
			}
		}
	],
	"meshes":[
		{
			"name":"Sphere",
			"primitives":[
				{
					"attributes":{
						"POSITION":0,
						"NORMAL":1,
						"TEXCOORD_0":2,
						"JOINTS_0":3,
						"WEIGHTS_0":4
					},
					"indices":5,
					"material":0
				}
			]
		}
	],
	"skins":[
		{
			"inverseBindMatrices":6,
			"joints":[
				4,
				0,
				1,
				2,
				3,
				5
			],
			"name":"Armature"
		}
	],
	"accessors":[
		{
			"bufferView":0,
			"componentType":5126,
			"count":2080,
			"max":[
				0.15467126667499542,
				1.5838040113449097,
				0.15467126667499542
			],
			"min":[
				-0.15467126667499542,
				1.3316065073013306,
				-0.15467126667499542
			],
			"type":"VEC3"
		},
		{
			"bufferView":1,
			"componentType":5126,
			"count":2080,
			"type":"VEC3"
		},
		{
			"bufferView":2,
			"componentType":5126,
			"count":2080,
			"type":"VEC2"
		},
		{
			"bufferView":3,
			"componentType":5121,
			"count":2080,
			"type":"VEC4"
		},
		{
			"bufferView":4,
			"componentType":5126,
			"count":2080,
			"type":"VEC4"
		},
		{
			"bufferView":5,
			"componentType":5123,
			"count":3024,
			"type":"SCALAR"
		},
		{
			"bufferView":6,
			"componentType":5126,
			"count":6,
			"type":"MAT4"
		},
		{
			"bufferView":7,
			"componentType":5126,
			"count":2,
			"max":[
				3.125
			],
			"min":[
				0.041666666666666664
			],
			"type":"SCALAR"
		},
		{
			"bufferView":8,
			"componentType":5126,
			"count":2,
			"type":"VEC3"
		},
		{
			"bufferView":9,
			"componentType":5126,
			"count":75,
			"max":[
				3.125
			],
			"min":[
				0.041666666666666664
			],
			"type":"SCALAR"
		},
		{
			"bufferView":10,
			"componentType":5126,
			"count":75,
			"type":"VEC4"
		},
		{
			"bufferView":11,
			"componentType":5126,
			"count":2,
			"type":"VEC3"
		},
		{
			"bufferView":12,
			"componentType":5126,
			"count":2,
			"type":"VEC3"
		},
		{
			"bufferView":13,
			"componentType":5126,
			"count":75,
			"type":"VEC4"
		},
		{
			"bufferView":14,
			"componentType":5126,
			"count":2,
			"type":"VEC3"
		},
		{
			"bufferView":15,
			"componentType":5126,
			"count":2,
			"type":"VEC3"
		},
		{
			"bufferView":16,
			"componentType":5126,
			"count":75,
			"type":"VEC4"
		},
		{
			"bufferView":17,
			"componentType":5126,
			"count":2,
			"type":"VEC3"
		},
		{
			"bufferView":18,
			"componentType":5126,
			"count":2,
			"type":"VEC3"
		},
		{
			"bufferView":19,
			"componentType":5126,
			"count":75,
			"type":"VEC4"
		},
		{
			"bufferView":20,
			"componentType":5126,
			"count":2,
			"type":"VEC3"
		},
		{
			"bufferView":21,
			"componentType":5126,
			"count":2,
			"type":"VEC3"
		},
		{
			"bufferView":22,
			"componentType":5126,
			"count":75,
			"type":"VEC4"
		},
		{
			"bufferView":23,
			"componentType":5126,
			"count":75,
			"type":"VEC3"
		},
		{
			"bufferView":24,
			"componentType":5126,
			"count":2,
			"type":"VEC3"
		},
		{
			"bufferView":25,
			"componentType":5126,
			"count":75,
			"type":"VEC4"
		},
		{
			"bufferView":26,
			"componentType":5126,
			"count":2,
			"type":"VEC3"
		}
	],
	"bufferViews":[
		{
			"buffer":0,
			"byteLength":24960,
			"byteOffset":0,
			"target":34962
		},
		{
			"buffer":0,
			"byteLength":24960,
			"byteOffset":24960,
			"target":34962
		},
		{
			"buffer":0,
			"byteLength":16640,
			"byteOffset":49920,
			"target":34962
		},
		{
			"buffer":0,
			"byteLength":8320,
			"byteOffset":66560,
			"target":34962
		},
		{
			"buffer":0,
			"byteLength":33280,
			"byteOffset":74880,
			"target":34962
		},
		{
			"buffer":0,
			"byteLength":6048,
			"byteOffset":108160,
			"target":34963
		},
		{
			"buffer":0,
			"byteLength":384,
			"byteOffset":114208
		},
		{
			"buffer":0,
			"byteLength":8,
			"byteOffset":114592
		},
		{
			"buffer":0,
			"byteLength":24,
			"byteOffset":114600
		},
		{
			"buffer":0,
			"byteLength":300,
			"byteOffset":114624
		},
		{
			"buffer":0,
			"byteLength":1200,
			"byteOffset":114924
		},
		{
			"buffer":0,
			"byteLength":24,
			"byteOffset":116124
		},
		{
			"buffer":0,
			"byteLength":24,
			"byteOffset":116148
		},
		{
			"buffer":0,
			"byteLength":1200,
			"byteOffset":116172
		},
		{
			"buffer":0,
			"byteLength":24,
			"byteOffset":117372
		},
		{
			"buffer":0,
			"byteLength":24,
			"byteOffset":117396
		},
		{
			"buffer":0,
			"byteLength":1200,
			"byteOffset":117420
		},
		{
			"buffer":0,
			"byteLength":24,
			"byteOffset":118620
		},
		{
			"buffer":0,
			"byteLength":24,
			"byteOffset":118644
		},
		{
			"buffer":0,
			"byteLength":1200,
			"byteOffset":118668
		},
		{
			"buffer":0,
			"byteLength":24,
			"byteOffset":119868
		},
		{
			"buffer":0,
			"byteLength":24,
			"byteOffset":119892
		},
		{
			"buffer":0,
			"byteLength":1200,
			"byteOffset":119916
		},
		{
			"buffer":0,
			"byteLength":900,
			"byteOffset":121116
		},
		{
			"buffer":0,
			"byteLength":24,
			"byteOffset":122016
		},
		{
			"buffer":0,
			"byteLength":1200,
			"byteOffset":122040
		},
		{
			"buffer":0,
			"byteLength":24,
			"byteOffset":123240
		}
	],
	"buffers":[
		{
			"byteLength":123264,
			"uri":"egg.bin"
		}
	]
}
