{
	"asset":{
		"generator":"Khronos glTF Blender I/O v4.1.63",
		"version":"2.0"
	},
	"scene":0,
	"scenes":[
		{
			"name":"Scene",
			"nodes":[
				10
			]
		}
	],
	"nodes":[
		{
			"name":"Bone",
			"rotation":[
				4.0745362639427185e-10,
				-1.0089622280023969e-12,
				8.881781550023292e-16,
				1
			],
			"translation":[
				-2.6198317820691486e-11,
				0.030176328495144844,
				1.9761500880122185e-08
			]
		},
		{
			"children":[
				0
			],
			"name":"Bone.004",
			"rotation":[
				-0.03911764919757843,
				-1.1944401023811224e-07,
				-4.676027565153618e-09,
				0.9992346167564392
			],
			"translation":[
				1.3457901459901223e-11,
				0.06053788959980011,
				-1.6689584825257953e-08
			]
		},
		{
			"children":[
				1
			],
			"name":"Bone.002",
			"rotation":[
				0.733677327632904,
				8.122411543354247e-08,
				8.770049930717505e-08,
				0.6794980764389038
			],
			"scale":[
				1,
				1,
				1.0000085830688477
			],
			"translation":[
				0.00031046196818351746,
				1.4447847604751587,
				0.04648762196302414
			]
		},
		{
			"name":"Bone.005",
			"rotation":[
				-0.05207999050617218,
				0.07505974918603897,
				0.24031201004981995,
				0.9663870334625244
			],
			"scale":[
				0.9999999403953552,
				1,
				1
			],
			"translation":[
				-1.9038548515482034e-11,
				0.06469309329986572,
				-7.538690738329024e-08
			]
		},
		{
			"name":"Bone.006",
			"rotation":[
				-0.12677331268787384,
				-0.13545536994934082,
				-0.32949814200401306,
				0.9257490634918213
			],
			"translation":[
				-1.9038548515482034e-11,
				0.06469309329986572,
				-7.538690738329024e-08
			]
		},
		{
			"name":"Bone.007",
			"rotation":[
				0.39469772577285767,
				-0.2670672535896301,
				0.17751801013946533,
				0.8610320091247559
			],
			"scale":[
				1,
				0.9999998807907104,
				1
			],
			"translation":[
				-1.9038548515482034e-11,
				0.06469309329986572,
				-7.538690738329024e-08
			]
		},
		{
			"name":"Bone.008",
			"rotation":[
				0.3384941816329956,
				-0.021023757755756378,
				-0.27373024821281433,
				0.9000285863876343
			],
			"translation":[
				-1.9038548515482034e-11,
				0.06469309329986572,
				-7.538690738329024e-08
			]
		},
		{
			"children":[
				3,
				4,
				5,
				6
			],
			"name":"Bone.003",
			"rotation":[
				-0.21491248905658722,
				-1.4508223955544963e-07,
				-8.272134266462672e-08,
				0.9766333103179932
			],
			"scale":[
				1,
				0.9999999403953552,
				1
			],
			"translation":[
				-2.102340523890689e-11,
				0.07057332247495651,
				6.486513370873581e-08
			]
		},
		{
			"children":[
				7
			],
			"name":"Bone.001",
			"rotation":[
				-0.6040798425674438,
				1.7340106239771558e-07,
				-1.3972015722174547e-07,
				0.796923816204071
			],
			"translation":[
				0.00031046196818351746,
				1.4447847604751587,
				0.04648762196302414
			]
		},
		{
			"mesh":0,
			"name":"Icosphere",
			"skin":0
		},
		{
			"children":[
				9,
				2,
				8
			],
			"name":"Armature"
		}
	],
	"animations":[
		{
			"channels":[
				{
					"sampler":0,
					"target":{
						"node":2,
						"path":"translation"
					}
				},
				{
					"sampler":1,
					"target":{
						"node":2,
						"path":"rotation"
					}
				},
				{
					"sampler":2,
					"target":{
						"node":2,
						"path":"scale"
					}
				},
				{
					"sampler":3,
					"target":{
						"node":1,
						"path":"translation"
					}
				},
				{
					"sampler":4,
					"target":{
						"node":1,
						"path":"rotation"
					}
				},
				{
					"sampler":5,
					"target":{
						"node":1,
						"path":"scale"
					}
				},
				{
					"sampler":6,
					"target":{
						"node":0,
						"path":"translation"
					}
				},
				{
					"sampler":7,
					"target":{
						"node":0,
						"path":"rotation"
					}
				},
				{
					"sampler":8,
					"target":{
						"node":0,
						"path":"scale"
					}
				},
				{
					"sampler":9,
					"target":{
						"node":8,
						"path":"translation"
					}
				},
				{
					"sampler":10,
					"target":{
						"node":8,
						"path":"rotation"
					}
				},
				{
					"sampler":11,
					"target":{
						"node":8,
						"path":"scale"
					}
				},
				{
					"sampler":12,
					"target":{
						"node":7,
						"path":"translation"
					}
				},
				{
					"sampler":13,
					"target":{
						"node":7,
						"path":"rotation"
					}
				},
				{
					"sampler":14,
					"target":{
						"node":7,
						"path":"scale"
					}
				},
				{
					"sampler":15,
					"target":{
						"node":3,
						"path":"translation"
					}
				},
				{
					"sampler":16,
					"target":{
						"node":3,
						"path":"rotation"
					}
				},
				{
					"sampler":17,
					"target":{
						"node":3,
						"path":"scale"
					}
				},
				{
					"sampler":18,
					"target":{
						"node":4,
						"path":"translation"
					}
				},
				{
					"sampler":19,
					"target":{
						"node":4,
						"path":"rotation"
					}
				},
				{
					"sampler":20,
					"target":{
						"node":4,
						"path":"scale"
					}
				},
				{
					"sampler":21,
					"target":{
						"node":5,
						"path":"translation"
					}
				},
				{
					"sampler":22,
					"target":{
						"node":5,
						"path":"rotation"
					}
				},
				{
					"sampler":23,
					"target":{
						"node":5,
						"path":"scale"
					}
				},
				{
					"sampler":24,
					"target":{
						"node":6,
						"path":"translation"
					}
				},
				{
					"sampler":25,
					"target":{
						"node":6,
						"path":"rotation"
					}
				},
				{
					"sampler":26,
					"target":{
						"node":6,
						"path":"scale"
					}
				}
			],
			"name":"ArmatureAction",
			"samplers":[
				{
					"input":7,
					"interpolation":"STEP",
					"output":8
				},
				{
					"input":9,
					"interpolation":"LINEAR",
					"output":10
				},
				{
					"input":7,
					"interpolation":"STEP",
					"output":11
				},
				{
					"input":7,
					"interpolation":"STEP",
					"output":12
				},
				{
					"input":9,
					"interpolation":"LINEAR",
					"output":13
				},
				{
					"input":7,
					"interpolation":"STEP",
					"output":14
				},
				{
					"input":7,
					"interpolation":"STEP",
					"output":15
				},
				{
					"input":9,
					"interpolation":"LINEAR",
					"output":16
				},
				{
					"input":7,
					"interpolation":"STEP",
					"output":17
				},
				{
					"input":7,
					"interpolation":"STEP",
					"output":18
				},
				{
					"input":9,
					"interpolation":"LINEAR",
					"output":19
				},
				{
					"input":7,
					"interpolation":"STEP",
					"output":20
				},
				{
					"input":7,
					"interpolation":"STEP",
					"output":21
				},
				{
					"input":9,
					"interpolation":"LINEAR",
					"output":22
				},
				{
					"input":7,
					"interpolation":"STEP",
					"output":23
				},
				{
					"input":7,
					"interpolation":"STEP",
					"output":24
				},
				{
					"input":9,
					"interpolation":"LINEAR",
					"output":25
				},
				{
					"input":7,
					"interpolation":"STEP",
					"output":26
				},
				{
					"input":7,
					"interpolation":"STEP",
					"output":27
				},
				{
					"input":9,
					"interpolation":"LINEAR",
					"output":28
				},
				{
					"input":7,
					"interpolation":"STEP",
					"output":29
				},
				{
					"input":7,
					"interpolation":"STEP",
					"output":30
				},
				{
					"input":9,
					"interpolation":"LINEAR",
					"output":31
				},
				{
					"input":7,
					"interpolation":"STEP",
					"output":32
				},
				{
					"input":7,
					"interpolation":"STEP",
					"output":33
				},
				{
					"input":9,
					"interpolation":"LINEAR",
					"output":34
				},
				{
					"input":7,
					"interpolation":"STEP",
					"output":35
				}
			]
		}
	],
	"meshes":[
		{
			"name":"Icosphere",
			"primitives":[
				{
					"attributes":{
						"POSITION":0,
						"NORMAL":1,
						"TEXCOORD_0":2,
						"JOINTS_0":3,
						"WEIGHTS_0":4
					},
					"indices":5
				}
			]
		}
	],
	"skins":[
		{
			"inverseBindMatrices":6,
			"joints":[
				2,
				1,
				0,
				8,
				7,
				3,
				4,
				5,
				6
			],
			"name":"Armature"
		}
	],
	"accessors":[
		{
			"bufferView":0,
			"componentType":5126,
			"count":668,
			"max":[
				0.04737388715147972,
				1.4814995527267456,
				0.18727809190750122
			],
			"min":[
				-0.04737388342618942,
				1.408142328262329,
				-0.13775700330734253
			],
			"type":"VEC3"
		},
		{
			"bufferView":1,
			"componentType":5126,
			"count":668,
			"type":"VEC3"
		},
		{
			"bufferView":2,
			"componentType":5126,
			"count":668,
			"type":"VEC2"
		},
		{
			"bufferView":3,
			"componentType":5121,
			"count":668,
			"type":"VEC4"
		},
		{
			"bufferView":4,
			"componentType":5126,
			"count":668,
			"type":"VEC4"
		},
		{
			"bufferView":5,
			"componentType":5123,
			"count":1008,
			"type":"SCALAR"
		},
		{
			"bufferView":6,
			"componentType":5126,
			"count":9,
			"type":"MAT4"
		},
		{
			"bufferView":7,
			"componentType":5126,
			"count":2,
			"max":[
				3.4583333333333335
			],
			"min":[
				0
			],
			"type":"SCALAR"
		},
		{
			"bufferView":8,
			"componentType":5126,
			"count":2,
			"type":"VEC3"
		},
		{
			"bufferView":9,
			"componentType":5126,
			"count":84,
			"max":[
				3.4583333333333335
			],
			"min":[
				0
			],
			"type":"SCALAR"
		},
		{
			"bufferView":10,
			"componentType":5126,
			"count":84,
			"type":"VEC4"
		},
		{
			"bufferView":11,
			"componentType":5126,
			"count":2,
			"type":"VEC3"
		},
		{
			"bufferView":12,
			"componentType":5126,
			"count":2,
			"type":"VEC3"
		},
		{
			"bufferView":13,
			"componentType":5126,
			"count":84,
			"type":"VEC4"
		},
		{
			"bufferView":14,
			"componentType":5126,
			"count":2,
			"type":"VEC3"
		},
		{
			"bufferView":15,
			"componentType":5126,
			"count":2,
			"type":"VEC3"
		},
		{
			"bufferView":16,
			"componentType":5126,
			"count":84,
			"type":"VEC4"
		},
		{
			"bufferView":17,
			"componentType":5126,
			"count":2,
			"type":"VEC3"
		},
		{
			"bufferView":18,
			"componentType":5126,
			"count":2,
			"type":"VEC3"
		},
		{
			"bufferView":19,
			"componentType":5126,
			"count":84,
			"type":"VEC4"
		},
		{
			"bufferView":20,
			"componentType":5126,
			"count":2,
			"type":"VEC3"
		},
		{
			"bufferView":21,
			"componentType":5126,
			"count":2,
			"type":"VEC3"
		},
		{
			"bufferView":22,
			"componentType":5126,
			"count":84,
			"type":"VEC4"
		},
		{
			"bufferView":23,
			"componentType":5126,
			"count":2,
			"type":"VEC3"
		},
		{
			"bufferView":24,
			"componentType":5126,
			"count":2,
			"type":"VEC3"
		},
		{
			"bufferView":25,
			"componentType":5126,
			"count":84,
			"type":"VEC4"
		},
		{
			"bufferView":26,
			"componentType":5126,
			"count":2,
			"type":"VEC3"
		},
		{
			"bufferView":27,
			"componentType":5126,
			"count":2,
			"type":"VEC3"
		},
		{
			"bufferView":28,
			"componentType":5126,
			"count":84,
			"type":"VEC4"
		},
		{
			"bufferView":29,
			"componentType":5126,
			"count":2,
			"type":"VEC3"
		},
		{
			"bufferView":30,
			"componentType":5126,
			"count":2,
			"type":"VEC3"
		},
		{
			"bufferView":31,
			"componentType":5126,
			"count":84,
			"type":"VEC4"
		},
		{
			"bufferView":32,
			"componentType":5126,
			"count":2,
			"type":"VEC3"
		},
		{
			"bufferView":33,
			"componentType":5126,
			"count":2,
			"type":"VEC3"
		},
		{
			"bufferView":34,
			"componentType":5126,
			"count":84,
			"type":"VEC4"
		},
		{
			"bufferView":35,
			"componentType":5126,
			"count":2,
			"type":"VEC3"
		}
	],
	"bufferViews":[
		{
			"buffer":0,
			"byteLength":8016,
			"byteOffset":0,
			"target":34962
		},
		{
			"buffer":0,
			"byteLength":8016,
			"byteOffset":8016,
			"target":34962
		},
		{
			"buffer":0,
			"byteLength":5344,
			"byteOffset":16032,
			"target":34962
		},
		{
			"buffer":0,
			"byteLength":2672,
			"byteOffset":21376,
			"target":34962
		},
		{
			"buffer":0,
			"byteLength":10688,
			"byteOffset":24048,
			"target":34962
		},
		{
			"buffer":0,
			"byteLength":2016,
			"byteOffset":34736,
			"target":34963
		},
		{
			"buffer":0,
			"byteLength":576,
			"byteOffset":36752
		},
		{
			"buffer":0,
			"byteLength":8,
			"byteOffset":37328
		},
		{
			"buffer":0,
			"byteLength":24,
			"byteOffset":37336
		},
		{
			"buffer":0,
			"byteLength":336,
			"byteOffset":37360
		},
		{
			"buffer":0,
			"byteLength":1344,
			"byteOffset":37696
		},
		{
			"buffer":0,
			"byteLength":24,
			"byteOffset":39040
		},
		{
			"buffer":0,
			"byteLength":24,
			"byteOffset":39064
		},
		{
			"buffer":0,
			"byteLength":1344,
			"byteOffset":39088
		},
		{
			"buffer":0,
			"byteLength":24,
			"byteOffset":40432
		},
		{
			"buffer":0,
			"byteLength":24,
			"byteOffset":40456
		},
		{
			"buffer":0,
			"byteLength":1344,
			"byteOffset":40480
		},
		{
			"buffer":0,
			"byteLength":24,
			"byteOffset":41824
		},
		{
			"buffer":0,
			"byteLength":24,
			"byteOffset":41848
		},
		{
			"buffer":0,
			"byteLength":1344,
			"byteOffset":41872
		},
		{
			"buffer":0,
			"byteLength":24,
			"byteOffset":43216
		},
		{
			"buffer":0,
			"byteLength":24,
			"byteOffset":43240
		},
		{
			"buffer":0,
			"byteLength":1344,
			"byteOffset":43264
		},
		{
			"buffer":0,
			"byteLength":24,
			"byteOffset":44608
		},
		{
			"buffer":0,
			"byteLength":24,
			"byteOffset":44632
		},
		{
			"buffer":0,
			"byteLength":1344,
			"byteOffset":44656
		},
		{
			"buffer":0,
			"byteLength":24,
			"byteOffset":46000
		},
		{
			"buffer":0,
			"byteLength":24,
			"byteOffset":46024
		},
		{
			"buffer":0,
			"byteLength":1344,
			"byteOffset":46048
		},
		{
			"buffer":0,
			"byteLength":24,
			"byteOffset":47392
		},
		{
			"buffer":0,
			"byteLength":24,
			"byteOffset":47416
		},
		{
			"buffer":0,
			"byteLength":1344,
			"byteOffset":47440
		},
		{
			"buffer":0,
			"byteLength":24,
			"byteOffset":48784
		},
		{
			"buffer":0,
			"byteLength":24,
			"byteOffset":48808
		},
		{
			"buffer":0,
			"byteLength":1344,
			"byteOffset":48832
		},
		{
			"buffer":0,
			"byteLength":24,
			"byteOffset":50176
		}
	],
	"buffers":[
		{
			"byteLength":50200,
			"uri":"larve.bin"
		}
	]
}
