{
	"asset":{
		"generator":"Khronos glTF Blender I/O v4.1.63",
		"version":"2.0"
	},
	"scene":0,
	"scenes":[
		{
			"name":"Scene",
			"nodes":[
				0,
				7
			]
		}
	],
	"nodes":[
		{
			"mesh":0,
			"name":"Circle",
			"rotation":[
				0.7071068286895752,
				0,
				0,
				0.7071068286895752
			]
		},
		{
			"name":"Bone.003",
			"translation":[
				0,
				0.0208892822265625,
				0
			]
		},
		{
			"children":[
				1
			],
			"name":"Bone.001",
			"translation":[
				0,
				0.02088940143585205,
				0
			]
		},
		{
			"children":[
				2
			],
			"name":"Bone.002",
			"translation":[
				0,
				0.02088940143585205,
				0
			]
		},
		{
			"children":[
				3
			],
			"name":"Bone",
			"translation":[
				-0.0025389492511749268,
				1.461242437362671,
				0.0011999603593721986
			]
		},
		{
			"name":"neutral_bone",
			"rotation":[
				-0.7071067690849304,
				0,
				0,
				0.7071067690849304
			]
		},
		{
			"mesh":1,
			"name":"Cube.001",
			"skin":0
		},
		{
			"children":[
				6,
				4,
				5
			],
			"name":"Armature"
		}
	],
	"animations":[
		{
			"channels":[
				{
					"sampler":0,
					"target":{
						"node":4,
						"path":"translation"
					}
				},
				{
					"sampler":1,
					"target":{
						"node":4,
						"path":"rotation"
					}
				},
				{
					"sampler":2,
					"target":{
						"node":4,
						"path":"scale"
					}
				},
				{
					"sampler":3,
					"target":{
						"node":3,
						"path":"translation"
					}
				},
				{
					"sampler":4,
					"target":{
						"node":3,
						"path":"rotation"
					}
				},
				{
					"sampler":5,
					"target":{
						"node":3,
						"path":"scale"
					}
				},
				{
					"sampler":6,
					"target":{
						"node":2,
						"path":"translation"
					}
				},
				{
					"sampler":7,
					"target":{
						"node":2,
						"path":"rotation"
					}
				},
				{
					"sampler":8,
					"target":{
						"node":2,
						"path":"scale"
					}
				},
				{
					"sampler":9,
					"target":{
						"node":1,
						"path":"translation"
					}
				},
				{
					"sampler":10,
					"target":{
						"node":1,
						"path":"rotation"
					}
				},
				{
					"sampler":11,
					"target":{
						"node":1,
						"path":"scale"
					}
				}
			],
			"name":"ArmatureAction.002",
			"samplers":[
				{
					"input":11,
					"interpolation":"STEP",
					"output":12
				},
				{
					"input":13,
					"interpolation":"LINEAR",
					"output":14
				},
				{
					"input":11,
					"interpolation":"STEP",
					"output":15
				},
				{
					"input":11,
					"interpolation":"STEP",
					"output":16
				},
				{
					"input":11,
					"interpolation":"STEP",
					"output":17
				},
				{
					"input":11,
					"interpolation":"STEP",
					"output":18
				},
				{
					"input":11,
					"interpolation":"STEP",
					"output":19
				},
				{
					"input":11,
					"interpolation":"STEP",
					"output":20
				},
				{
					"input":11,
					"interpolation":"STEP",
					"output":21
				},
				{
					"input":11,
					"interpolation":"STEP",
					"output":22
				},
				{
					"input":11,
					"interpolation":"STEP",
					"output":23
				},
				{
					"input":11,
					"interpolation":"STEP",
					"output":24
				}
			]
		}
	],
	"meshes":[
		{
			"name":"Circle",
			"primitives":[
				{
					"attributes":{
						"POSITION":0,
						"NORMAL":1,
						"TEXCOORD_0":2
					},
					"indices":3
				}
			]
		},
		{
			"name":"Cube.009",
			"primitives":[
				{
					"attributes":{
						"POSITION":4,
						"NORMAL":5,
						"TEXCOORD_0":6,
						"JOINTS_0":7,
						"WEIGHTS_0":8
					},
					"indices":9
				}
			]
		}
	],
	"skins":[
		{
			"inverseBindMatrices":10,
			"joints":[
				4,
				3,
				2,
				1,
				5
			],
			"name":"Armature"
		}
	],
	"accessors":[
		{
			"bufferView":0,
			"componentType":5126,
			"count":886,
			"max":[
				0.29187700152397156,
				0.2562370002269745,
				-0.02998499944806099
			],
			"min":[
				-0.29187700152397156,
				-0.2562370002269745,
				-1.4264500141143799
			],
			"type":"VEC3"
		},
		{
			"bufferView":1,
			"componentType":5126,
			"count":886,
			"type":"VEC3"
		},
		{
			"bufferView":2,
			"componentType":5126,
			"count":886,
			"type":"VEC2"
		},
		{
			"bufferView":3,
			"componentType":5123,
			"count":1284,
			"type":"SCALAR"
		},
		{
			"bufferView":4,
			"componentType":5126,
			"count":489,
			"max":[
				0.08951488137245178,
				1.5000805854797363,
				0.047977421432733536
			],
			"min":[
				-0.10348989069461823,
				1.4236217737197876,
				-0.04557748883962631
			],
			"type":"VEC3"
		},
		{
			"bufferView":5,
			"componentType":5126,
			"count":489,
			"type":"VEC3"
		},
		{
			"bufferView":6,
			"componentType":5126,
			"count":489,
			"type":"VEC2"
		},
		{
			"bufferView":7,
			"componentType":5121,
			"count":489,
			"type":"VEC4"
		},
		{
			"bufferView":8,
			"componentType":5126,
			"count":489,
			"type":"VEC4"
		},
		{
			"bufferView":9,
			"componentType":5123,
			"count":864,
			"type":"SCALAR"
		},
		{
			"bufferView":10,
			"componentType":5126,
			"count":5,
			"type":"MAT4"
		},
		{
			"bufferView":11,
			"componentType":5126,
			"count":2,
			"max":[
				2.0833333333333335
			],
			"min":[
				0.041666666666666664
			],
			"type":"SCALAR"
		},
		{
			"bufferView":12,
			"componentType":5126,
			"count":2,
			"type":"VEC3"
		},
		{
			"bufferView":13,
			"componentType":5126,
			"count":50,
			"max":[
				2.0833333333333335
			],
			"min":[
				0.041666666666666664
			],
			"type":"SCALAR"
		},
		{
			"bufferView":14,
			"componentType":5126,
			"count":50,
			"type":"VEC4"
		},
		{
			"bufferView":15,
			"componentType":5126,
			"count":2,
			"type":"VEC3"
		},
		{
			"bufferView":16,
			"componentType":5126,
			"count":2,
			"type":"VEC3"
		},
		{
			"bufferView":17,
			"componentType":5126,
			"count":2,
			"type":"VEC4"
		},
		{
			"bufferView":18,
			"componentType":5126,
			"count":2,
			"type":"VEC3"
		},
		{
			"bufferView":19,
			"componentType":5126,
			"count":2,
			"type":"VEC3"
		},
		{
			"bufferView":20,
			"componentType":5126,
			"count":2,
			"type":"VEC4"
		},
		{
			"bufferView":21,
			"componentType":5126,
			"count":2,
			"type":"VEC3"
		},
		{
			"bufferView":22,
			"componentType":5126,
			"count":2,
			"type":"VEC3"
		},
		{
			"bufferView":23,
			"componentType":5126,
			"count":2,
			"type":"VEC4"
		},
		{
			"bufferView":24,
			"componentType":5126,
			"count":2,
			"type":"VEC3"
		}
	],
	"bufferViews":[
		{
			"buffer":0,
			"byteLength":10632,
			"byteOffset":0,
			"target":34962
		},
		{
			"buffer":0,
			"byteLength":10632,
			"byteOffset":10632,
			"target":34962
		},
		{
			"buffer":0,
			"byteLength":7088,
			"byteOffset":21264,
			"target":34962
		},
		{
			"buffer":0,
			"byteLength":2568,
			"byteOffset":28352,
			"target":34963
		},
		{
			"buffer":0,
			"byteLength":5868,
			"byteOffset":30920,
			"target":34962
		},
		{
			"buffer":0,
			"byteLength":5868,
			"byteOffset":36788,
			"target":34962
		},
		{
			"buffer":0,
			"byteLength":3912,
			"byteOffset":42656,
			"target":34962
		},
		{
			"buffer":0,
			"byteLength":1956,
			"byteOffset":46568,
			"target":34962
		},
		{
			"buffer":0,
			"byteLength":7824,
			"byteOffset":48524,
			"target":34962
		},
		{
			"buffer":0,
			"byteLength":1728,
			"byteOffset":56348,
			"target":34963
		},
		{
			"buffer":0,
			"byteLength":320,
			"byteOffset":58076
		},
		{
			"buffer":0,
			"byteLength":8,
			"byteOffset":58396
		},
		{
			"buffer":0,
			"byteLength":24,
			"byteOffset":58404
		},
		{
			"buffer":0,
			"byteLength":200,
			"byteOffset":58428
		},
		{
			"buffer":0,
			"byteLength":800,
			"byteOffset":58628
		},
		{
			"buffer":0,
			"byteLength":24,
			"byteOffset":59428
		},
		{
			"buffer":0,
			"byteLength":24,
			"byteOffset":59452
		},
		{
			"buffer":0,
			"byteLength":32,
			"byteOffset":59476
		},
		{
			"buffer":0,
			"byteLength":24,
			"byteOffset":59508
		},
		{
			"buffer":0,
			"byteLength":24,
			"byteOffset":59532
		},
		{
			"buffer":0,
			"byteLength":32,
			"byteOffset":59556
		},
		{
			"buffer":0,
			"byteLength":24,
			"byteOffset":59588
		},
		{
			"buffer":0,
			"byteLength":24,
			"byteOffset":59612
		},
		{
			"buffer":0,
			"byteLength":32,
			"byteOffset":59636
		},
		{
			"buffer":0,
			"byteLength":24,
			"byteOffset":59668
		}
	],
	"buffers":[
		{
			"byteLength":59692,
			"uri":"mortarBug.bin"
		}
	]
}
