{
	"asset":{
		"generator":"Khronos glTF Blender I/O v4.1.63",
		"version":"2.0"
	},
	"scene":0,
	"scenes":[
		{
			"name":"Scene",
			"nodes":[
				7
			]
		}
	],
	"nodes":[
		{
			"name":"Bone",
			"translation":[
				0,
				1.648847222328186,
				0
			]
		},
		{
			"name":"Bone.001",
			"rotation":[
				-0.644602358341217,
				-0.30479416251182556,
				-0.6272874474525452,
				0.31320735812187195
			],
			"scale":[
				0.9999999403953552,
				1,
				0.9999999403953552
			],
			"translation":[
				0,
				1.648847222328186,
				0
			]
		},
		{
			"name":"Bone.002",
			"rotation":[
				-0.071268729865551,
				0.4881826937198639,
				0.8689045310020447,
				0.04004139453172684
			],
			"scale":[
				1,
				1.0000001192092896,
				1.0000003576278687
			],
			"translation":[
				0,
				1.648847222328186,
				0
			]
		},
		{
			"name":"Bone.003",
			"rotation":[
				-0.8216184973716736,
				0.10530011355876923,
				0.1612555980682373,
				0.5365180373191833
			],
			"scale":[
				1,
				0.9999998807907104,
				0.9999999403953552
			],
			"translation":[
				0,
				1.648847222328186,
				0
			]
		},
		{
			"name":"Bone.004",
			"rotation":[
				-0.6436219215393066,
				0.35234561562538147,
				0.5231767892837524,
				0.4334621727466583
			],
			"scale":[
				1,
				1,
				0.9999999403953552
			],
			"translation":[
				0,
				1.648847222328186,
				0
			]
		},
		{
			"name":"neutral_bone",
			"rotation":[
				-0.7071067690849304,
				0,
				0,
				0.7071067690849304
			]
		},
		{
			"mesh":0,
			"name":"Cube",
			"skin":0
		},
		{
			"children":[
				6,
				0,
				1,
				2,
				3,
				4,
				5
			],
			"name":"Armature"
		}
	],
	"animations":[
		{
			"channels":[
				{
					"sampler":0,
					"target":{
						"node":0,
						"path":"translation"
					}
				},
				{
					"sampler":1,
					"target":{
						"node":0,
						"path":"rotation"
					}
				},
				{
					"sampler":2,
					"target":{
						"node":0,
						"path":"scale"
					}
				},
				{
					"sampler":3,
					"target":{
						"node":1,
						"path":"translation"
					}
				},
				{
					"sampler":4,
					"target":{
						"node":1,
						"path":"rotation"
					}
				},
				{
					"sampler":5,
					"target":{
						"node":1,
						"path":"scale"
					}
				},
				{
					"sampler":6,
					"target":{
						"node":2,
						"path":"translation"
					}
				},
				{
					"sampler":7,
					"target":{
						"node":2,
						"path":"rotation"
					}
				},
				{
					"sampler":8,
					"target":{
						"node":2,
						"path":"scale"
					}
				},
				{
					"sampler":9,
					"target":{
						"node":3,
						"path":"translation"
					}
				},
				{
					"sampler":10,
					"target":{
						"node":3,
						"path":"rotation"
					}
				},
				{
					"sampler":11,
					"target":{
						"node":3,
						"path":"scale"
					}
				},
				{
					"sampler":12,
					"target":{
						"node":4,
						"path":"translation"
					}
				},
				{
					"sampler":13,
					"target":{
						"node":4,
						"path":"rotation"
					}
				},
				{
					"sampler":14,
					"target":{
						"node":4,
						"path":"scale"
					}
				}
			],
			"name":"ArmatureAction",
			"samplers":[
				{
					"input":7,
					"interpolation":"LINEAR",
					"output":8
				},
				{
					"input":7,
					"interpolation":"LINEAR",
					"output":9
				},
				{
					"input":7,
					"interpolation":"LINEAR",
					"output":10
				},
				{
					"input":7,
					"interpolation":"LINEAR",
					"output":11
				},
				{
					"input":7,
					"interpolation":"LINEAR",
					"output":12
				},
				{
					"input":7,
					"interpolation":"LINEAR",
					"output":13
				},
				{
					"input":7,
					"interpolation":"LINEAR",
					"output":14
				},
				{
					"input":7,
					"interpolation":"LINEAR",
					"output":15
				},
				{
					"input":7,
					"interpolation":"LINEAR",
					"output":16
				},
				{
					"input":7,
					"interpolation":"LINEAR",
					"output":17
				},
				{
					"input":7,
					"interpolation":"LINEAR",
					"output":18
				},
				{
					"input":7,
					"interpolation":"LINEAR",
					"output":19
				},
				{
					"input":7,
					"interpolation":"LINEAR",
					"output":20
				},
				{
					"input":7,
					"interpolation":"LINEAR",
					"output":21
				},
				{
					"input":7,
					"interpolation":"LINEAR",
					"output":22
				}
			]
		},
		{
			"channels":[
				{
					"sampler":0,
					"target":{
						"node":0,
						"path":"translation"
					}
				},
				{
					"sampler":1,
					"target":{
						"node":0,
						"path":"rotation"
					}
				},
				{
					"sampler":2,
					"target":{
						"node":0,
						"path":"scale"
					}
				},
				{
					"sampler":3,
					"target":{
						"node":1,
						"path":"translation"
					}
				},
				{
					"sampler":4,
					"target":{
						"node":1,
						"path":"rotation"
					}
				},
				{
					"sampler":5,
					"target":{
						"node":1,
						"path":"scale"
					}
				},
				{
					"sampler":6,
					"target":{
						"node":2,
						"path":"translation"
					}
				},
				{
					"sampler":7,
					"target":{
						"node":2,
						"path":"rotation"
					}
				},
				{
					"sampler":8,
					"target":{
						"node":2,
						"path":"scale"
					}
				},
				{
					"sampler":9,
					"target":{
						"node":3,
						"path":"translation"
					}
				},
				{
					"sampler":10,
					"target":{
						"node":3,
						"path":"rotation"
					}
				},
				{
					"sampler":11,
					"target":{
						"node":3,
						"path":"scale"
					}
				},
				{
					"sampler":12,
					"target":{
						"node":4,
						"path":"translation"
					}
				},
				{
					"sampler":13,
					"target":{
						"node":4,
						"path":"rotation"
					}
				},
				{
					"sampler":14,
					"target":{
						"node":4,
						"path":"scale"
					}
				}
			],
			"name":"ArmatureAction_Armature",
			"samplers":[
				{
					"input":23,
					"interpolation":"STEP",
					"output":24
				},
				{
					"input":23,
					"interpolation":"LINEAR",
					"output":25
				},
				{
					"input":23,
					"interpolation":"STEP",
					"output":26
				},
				{
					"input":23,
					"interpolation":"STEP",
					"output":27
				},
				{
					"input":23,
					"interpolation":"LINEAR",
					"output":28
				},
				{
					"input":23,
					"interpolation":"STEP",
					"output":29
				},
				{
					"input":23,
					"interpolation":"STEP",
					"output":30
				},
				{
					"input":23,
					"interpolation":"LINEAR",
					"output":31
				},
				{
					"input":23,
					"interpolation":"STEP",
					"output":32
				},
				{
					"input":23,
					"interpolation":"STEP",
					"output":33
				},
				{
					"input":23,
					"interpolation":"LINEAR",
					"output":34
				},
				{
					"input":23,
					"interpolation":"STEP",
					"output":35
				},
				{
					"input":23,
					"interpolation":"STEP",
					"output":36
				},
				{
					"input":23,
					"interpolation":"LINEAR",
					"output":37
				},
				{
					"input":23,
					"interpolation":"STEP",
					"output":38
				}
			]
		}
	],
	"meshes":[
		{
			"name":"Cube.002",
			"primitives":[
				{
					"attributes":{
						"POSITION":0,
						"NORMAL":1,
						"TEXCOORD_0":2,
						"JOINTS_0":3,
						"WEIGHTS_0":4
					},
					"indices":5
				}
			]
		}
	],
	"skins":[
		{
			"inverseBindMatrices":6,
			"joints":[
				0,
				1,
				2,
				3,
				4,
				5
			],
			"name":"Armature"
		}
	],
	"accessors":[
		{
			"bufferView":0,
			"componentType":5126,
			"count":288,
			"max":[
				0.10700211673974991,
				1.755749225616455,
				0.11250852048397064
			],
			"min":[
				-0.10700211673974991,
				1.4252640008926392,
				-0.11250852048397064
			],
			"type":"VEC3"
		},
		{
			"bufferView":1,
			"componentType":5126,
			"count":288,
			"type":"VEC3"
		},
		{
			"bufferView":2,
			"componentType":5126,
			"count":288,
			"type":"VEC2"
		},
		{
			"bufferView":3,
			"componentType":5121,
			"count":288,
			"type":"VEC4"
		},
		{
			"bufferView":4,
			"componentType":5126,
			"count":288,
			"type":"VEC4"
		},
		{
			"bufferView":5,
			"componentType":5123,
			"count":312,
			"type":"SCALAR"
		},
		{
			"bufferView":6,
			"componentType":5126,
			"count":6,
			"type":"MAT4"
		},
		{
			"bufferView":7,
			"componentType":5126,
			"count":156,
			"max":[
				6.666666666666667
			],
			"min":[
				0.20833333333333334
			],
			"type":"SCALAR"
		},
		{
			"bufferView":8,
			"componentType":5126,
			"count":156,
			"type":"VEC3"
		},
		{
			"bufferView":9,
			"componentType":5126,
			"count":156,
			"type":"VEC4"
		},
		{
			"bufferView":10,
			"componentType":5126,
			"count":156,
			"type":"VEC3"
		},
		{
			"bufferView":11,
			"componentType":5126,
			"count":156,
			"type":"VEC3"
		},
		{
			"bufferView":12,
			"componentType":5126,
			"count":156,
			"type":"VEC4"
		},
		{
			"bufferView":13,
			"componentType":5126,
			"count":156,
			"type":"VEC3"
		},
		{
			"bufferView":14,
			"componentType":5126,
			"count":156,
			"type":"VEC3"
		},
		{
			"bufferView":15,
			"componentType":5126,
			"count":156,
			"type":"VEC4"
		},
		{
			"bufferView":16,
			"componentType":5126,
			"count":156,
			"type":"VEC3"
		},
		{
			"bufferView":17,
			"componentType":5126,
			"count":156,
			"type":"VEC3"
		},
		{
			"bufferView":18,
			"componentType":5126,
			"count":156,
			"type":"VEC4"
		},
		{
			"bufferView":19,
			"componentType":5126,
			"count":156,
			"type":"VEC3"
		},
		{
			"bufferView":20,
			"componentType":5126,
			"count":156,
			"type":"VEC3"
		},
		{
			"bufferView":21,
			"componentType":5126,
			"count":156,
			"type":"VEC4"
		},
		{
			"bufferView":22,
			"componentType":5126,
			"count":156,
			"type":"VEC3"
		},
		{
			"bufferView":23,
			"componentType":5126,
			"count":84,
			"max":[
				3.4583333333333335
			],
			"min":[
				0
			],
			"type":"SCALAR"
		},
		{
			"bufferView":24,
			"componentType":5126,
			"count":84,
			"type":"VEC3"
		},
		{
			"bufferView":25,
			"componentType":5126,
			"count":84,
			"type":"VEC4"
		},
		{
			"bufferView":26,
			"componentType":5126,
			"count":84,
			"type":"VEC3"
		},
		{
			"bufferView":27,
			"componentType":5126,
			"count":84,
			"type":"VEC3"
		},
		{
			"bufferView":28,
			"componentType":5126,
			"count":84,
			"type":"VEC4"
		},
		{
			"bufferView":29,
			"componentType":5126,
			"count":84,
			"type":"VEC3"
		},
		{
			"bufferView":30,
			"componentType":5126,
			"count":84,
			"type":"VEC3"
		},
		{
			"bufferView":31,
			"componentType":5126,
			"count":84,
			"type":"VEC4"
		},
		{
			"bufferView":32,
			"componentType":5126,
			"count":84,
			"type":"VEC3"
		},
		{
			"bufferView":33,
			"componentType":5126,
			"count":84,
			"type":"VEC3"
		},
		{
			"bufferView":34,
			"componentType":5126,
			"count":84,
			"type":"VEC4"
		},
		{
			"bufferView":35,
			"componentType":5126,
			"count":84,
			"type":"VEC3"
		},
		{
			"bufferView":36,
			"componentType":5126,
			"count":84,
			"type":"VEC3"
		},
		{
			"bufferView":37,
			"componentType":5126,
			"count":84,
			"type":"VEC4"
		},
		{
			"bufferView":38,
			"componentType":5126,
			"count":84,
			"type":"VEC3"
		}
	],
	"bufferViews":[
		{
			"buffer":0,
			"byteLength":3456,
			"byteOffset":0,
			"target":34962
		},
		{
			"buffer":0,
			"byteLength":3456,
			"byteOffset":3456,
			"target":34962
		},
		{
			"buffer":0,
			"byteLength":2304,
			"byteOffset":6912,
			"target":34962
		},
		{
			"buffer":0,
			"byteLength":1152,
			"byteOffset":9216,
			"target":34962
		},
		{
			"buffer":0,
			"byteLength":4608,
			"byteOffset":10368,
			"target":34962
		},
		{
			"buffer":0,
			"byteLength":624,
			"byteOffset":14976,
			"target":34963
		},
		{
			"buffer":0,
			"byteLength":384,
			"byteOffset":15600
		},
		{
			"buffer":0,
			"byteLength":624,
			"byteOffset":15984
		},
		{
			"buffer":0,
			"byteLength":1872,
			"byteOffset":16608
		},
		{
			"buffer":0,
			"byteLength":2496,
			"byteOffset":18480
		},
		{
			"buffer":0,
			"byteLength":1872,
			"byteOffset":20976
		},
		{
			"buffer":0,
			"byteLength":1872,
			"byteOffset":22848
		},
		{
			"buffer":0,
			"byteLength":2496,
			"byteOffset":24720
		},
		{
			"buffer":0,
			"byteLength":1872,
			"byteOffset":27216
		},
		{
			"buffer":0,
			"byteLength":1872,
			"byteOffset":29088
		},
		{
			"buffer":0,
			"byteLength":2496,
			"byteOffset":30960
		},
		{
			"buffer":0,
			"byteLength":1872,
			"byteOffset":33456
		},
		{
			"buffer":0,
			"byteLength":1872,
			"byteOffset":35328
		},
		{
			"buffer":0,
			"byteLength":2496,
			"byteOffset":37200
		},
		{
			"buffer":0,
			"byteLength":1872,
			"byteOffset":39696
		},
		{
			"buffer":0,
			"byteLength":1872,
			"byteOffset":41568
		},
		{
			"buffer":0,
			"byteLength":2496,
			"byteOffset":43440
		},
		{
			"buffer":0,
			"byteLength":1872,
			"byteOffset":45936
		},
		{
			"buffer":0,
			"byteLength":336,
			"byteOffset":47808
		},
		{
			"buffer":0,
			"byteLength":1008,
			"byteOffset":48144
		},
		{
			"buffer":0,
			"byteLength":1344,
			"byteOffset":49152
		},
		{
			"buffer":0,
			"byteLength":1008,
			"byteOffset":50496
		},
		{
			"buffer":0,
			"byteLength":1008,
			"byteOffset":51504
		},
		{
			"buffer":0,
			"byteLength":1344,
			"byteOffset":52512
		},
		{
			"buffer":0,
			"byteLength":1008,
			"byteOffset":53856
		},
		{
			"buffer":0,
			"byteLength":1008,
			"byteOffset":54864
		},
		{
			"buffer":0,
			"byteLength":1344,
			"byteOffset":55872
		},
		{
			"buffer":0,
			"byteLength":1008,
			"byteOffset":57216
		},
		{
			"buffer":0,
			"byteLength":1008,
			"byteOffset":58224
		},
		{
			"buffer":0,
			"byteLength":1344,
			"byteOffset":59232
		},
		{
			"buffer":0,
			"byteLength":1008,
			"byteOffset":60576
		},
		{
			"buffer":0,
			"byteLength":1008,
			"byteOffset":61584
		},
		{
			"buffer":0,
			"byteLength":1344,
			"byteOffset":62592
		},
		{
			"buffer":0,
			"byteLength":1008,
			"byteOffset":63936
		}
	],
	"buffers":[
		{
			"byteLength":64944,
			"uri":"weirdAssCollector.bin"
		}
	]
}
